<svg width="168" height="227" viewBox="0 0 168 227" fill="none" xmlns="http://www.w3.org/2000/svg">
<path d="M91.1876 70.8318L91.0816 71.3814L90.5577 71.5785L42.4808 89.6629L90.5577 107.747L91.0816 107.944L91.1876 108.494L103.82 174.042L116.453 108.494L116.559 107.944L117.083 107.747L165.16 89.6629L117.083 71.5785L116.559 71.3814L116.453 70.8318L103.82 5.28423L91.1876 70.8318Z" stroke="#765F4F" stroke-width="2"/>
<path d="M36.6751 150.1L36.5691 150.649L36.0452 150.846L2.84041 163.336L36.0452 175.827L36.5691 176.024L36.6751 176.573L45.3034 221.344L53.9318 176.573L54.0377 176.024L54.5617 175.827L87.7665 163.336L54.5617 150.846L54.0377 150.649L53.9318 150.1L45.3034 105.329L36.6751 150.1Z" stroke="#765F4F" stroke-width="2"/>
</svg>
