<svg width="168" height="227" viewBox="0 0 168 227" fill="none" xmlns="http://www.w3.org/2000/svg">
<path d="M76.8124 70.8318L76.9184 71.3814L77.4423 71.5785L125.519 89.6629L77.4423 107.747L76.9184 107.944L76.8124 108.494L64.1798 174.042L51.5471 108.494L51.4412 107.944L50.9173 107.747L2.84033 89.6629L50.9173 71.5785L51.4412 71.3814L51.5471 70.8318L64.1798 5.28423L76.8124 70.8318Z" stroke="#765F4F" stroke-width="2"/>
<path d="M131.325 150.1L131.431 150.649L131.955 150.846L165.16 163.336L131.955 175.827L131.431 176.024L131.325 176.573L122.697 221.344L114.068 176.573L113.962 176.024L113.438 175.827L80.2335 163.336L113.438 150.846L113.962 150.649L114.068 150.1L122.697 105.329L131.325 150.1Z" stroke="#765F4F" stroke-width="2"/>
</svg>
